<svg xmlns="http://www.w3.org/2000/svg" xmlns:xlink="http://www.w3.org/1999/xlink" width="500" zoomAndPan="magnify" viewBox="0 0 375 374.999991" height="500" preserveAspectRatio="xMidYMid meet" version="1.2"><defs><clipPath id="8b1f7bf1e6"><path d="M 0 9.203125 L 375 9.203125 L 375 365.453125 L 0 365.453125 Z M 0 9.203125 "/></clipPath></defs><g id="b39c5eb91b"><g clip-rule="nonzero" clip-path="url(#8b1f7bf1e6)"><path style=" stroke:none;fill-rule:nonzero;fill:#010101;fill-opacity:1;" d="M 375.046875 362.28125 L 375.046875 365.207031 L 312.15625 365.207031 L 312.15625 362.28125 C 324.945312 362.28125 334.457031 352.050781 334.457031 340 C 334.457031 338.171875 334.09375 335.984375 333.730469 333.785156 L 297.535156 208.5 L 279.253906 208.5 C 247.8125 208.5 220.015625 229.679688 211.980469 260 L 187.125 355.339844 L 185.296875 362.28125 L 184.570312 365.207031 L 180.226562 365.207031 L 180.226562 362.28125 L 182.019531 362.28125 L 184.570312 352.414062 L 209.800781 257.074219 C 217.847656 226.753906 245.632812 205.574219 277.074219 205.574219 L 296.820312 205.574219 L 254.386719 57.65625 L 200.710938 261.984375 L 198.453125 270.605469 L 193.617188 288.960938 C 187.964844 310.449219 174.582031 329.214844 155.84375 341.179688 C 155.402344 341.460938 154.949219 341.746094 154.496094 342.027344 C 137.855469 352.300781 117.800781 358.300781 96.15625 358.300781 C 73.128906 358.300781 51.550781 351.722656 34.367188 340.03125 C 20.839844 330.90625 2.929688 341.132812 2.929688 358.300781 L 0 358.300781 L 0 262.960938 L 2.929688 262.960938 C 2.929688 313.738281 52.652344 355.375 96.15625 355.375 C 125.292969 355.375 150.660156 336.699219 164.234375 309.109375 C 168.773438 299.882812 171.996094 289.640625 173.609375 278.777344 C 174.914062 269.957031 176.785156 261.214844 179.042969 252.585938 L 187.566406 220.054688 L 232.808594 47.40625 C 236.464844 33.164062 225.863281 19.285156 211.234375 19.285156 L 211.234375 16.382812 L 294.222656 16.382812 L 294.222656 19.308594 L 289.105469 19.308594 C 274.472656 19.308594 261.683594 29.171875 258.027344 43.414062 C 256.5625 48.890625 256.5625 55.105469 258.027344 60.582031 L 299.703125 205.597656 L 300.429688 208.523438 L 336.261719 333.082031 C 341.40625 350.589844 357.125 362.28125 375.046875 362.28125 Z M 92.136719 188.453125 C 92.136719 188.453125 147.765625 204.191406 167.738281 238.082031 L 176.160156 205.960938 C 151.667969 180.628906 115.8125 167.507812 102.386719 162.882812 C 80.449219 155.21875 24.515625 141.328125 25.605469 88.375 C 26.332031 44.910156 57.78125 12.402344 97.269531 12.402344 C 136.027344 12.402344 167.46875 44.183594 168.570312 86.546875 L 168.570312 90.199219 L 171.859375 90.199219 L 171.859375 9.476562 L 168.570312 9.476562 C 168.570312 17.878906 162.347656 23.71875 155.402344 23.71875 C 153.210938 23.71875 151.382812 23.355469 149.183594 22.253906 C 134.179688 14.226562 116.269531 9.476562 97.257812 9.476562 C 43.503906 9.476562 0 46 0 90.5625 C 0 170.921875 81.539062 184.074219 92.136719 188.453125 Z M 92.136719 188.453125 "/></g></g></svg>